<svg width="44" height="44" viewBox="0 0 44 44" fill="none" xmlns="http://www.w3.org/2000/svg">
<path d="M7.33325 32.9974C7.33325 31.0525 8.10587 29.1872 9.48114 27.8119C10.8564 26.4367 12.7217 25.6641 14.6666 25.6641H29.3333C31.2782 25.6641 33.1434 26.4367 34.5187 27.8119C35.894 29.1872 36.6666 31.0525 36.6666 32.9974C36.6666 33.9699 36.2803 34.9025 35.5926 35.5901C34.905 36.2778 33.9724 36.6641 32.9999 36.6641H10.9999C10.0275 36.6641 9.09483 36.2778 8.40719 35.5901C7.71956 34.9025 7.33325 33.9699 7.33325 32.9974Z" stroke="#1A1A1A" stroke-width="2" stroke-linejoin="round"/>
<path d="M22 18.332C25.0376 18.332 27.5 15.8696 27.5 12.832C27.5 9.79447 25.0376 7.33203 22 7.33203C18.9624 7.33203 16.5 9.79447 16.5 12.832C16.5 15.8696 18.9624 18.332 22 18.332Z" stroke="#1A1A1A" stroke-width="2"/>
</svg>
